<!-- Generator: Adobe Illustrator 19.0.0, SVG Export Plug-In  -->
<svg version="1.1"
	 xmlns="http://www.w3.org/2000/svg" xmlns:xlink="http://www.w3.org/1999/xlink" xmlns:a="http://ns.adobe.com/AdobeSVGViewerExtensions/3.0/"
	 x="0px" y="0px" width="124px" height="48px" viewBox="0 0 124 48" enable-background="new 0 0 124 48" xml:space="preserve">
<defs>
</defs>
<g id="XMLID_32_">
	<path id="XMLID_33_" fill="#E849E8" d="M93.7,0H4C1.9,0,0,1.3,0,3.4v40.3C0,45.9,1.9,48,4,48h89.6l19-24L93.7,0z"/>
</g>
<path id="XMLID_18_" fill="#FFFFFF" d="M33,16h-3v9.8L23.7,16H21v15h3V21l5.7,10H33V16z M42.9,30.6c0.8-0.4,1.4-0.8,1.8-1.5
	l-1.5-1.6c-0.6,0.8-1.5,1.2-2.7,1.2c-0.7,0-1.4-0.4-1.8-0.8C38.3,27.5,38,27,37.9,26H45v-0.9c0-1.8-0.4-3.1-1.3-4.1
	c-0.9-1-2.1-1.4-3.6-1.4c-1,0-1.9,0.2-2.7,0.7s-1.3,1.2-1.8,2s-0.6,1.9-0.6,3v0.3c0,1.7,0.5,3,1.5,4s2.3,1.5,4,1.5
	C41.4,31.1,42.2,30.9,42.9,30.6z M41.5,22.5c0.3,0.4,0.5,0.9,0.5,1.5v0h-4.1c0.1,0,0.3-1.2,0.7-1.6c0.4-0.4,0.8-0.5,1.4-0.5
	C40.7,21.9,41.2,22.1,41.5,22.5z M52.3,28.7C52,28.9,51.6,29,51,29c-0.6,0-1.1-0.3-1.5-0.6C49.2,28.1,49,28,49,27h-2.8
	c0,1,0.2,1.5,0.6,2.1s1,1.1,1.7,1.5c0.7,0.3,1.6,0.5,2.5,0.5c1.4,0,2.5-0.3,3.4-0.9c0.9-0.6,1.3-1.4,1.3-2.5c0-1.4-0.8-2.4-2.4-3
	c-0.5-0.2-1.1-0.3-1.9-0.5c-0.7-0.1-1.3-0.3-1.6-0.5c-0.3-0.2-0.5-0.5-0.5-0.8c0-0.4,0.1-0.6,0.4-0.9c0.3-0.2,0.7-0.3,1.2-0.3
	c0.6,0,1,0.1,1.3,0.3c0.3,0.3,0.4,1,0.4,1h3c0-1-0.4-1.9-1.3-2.5c-0.8-0.7-2-1-3.4-1c-1.3,0-2.4,0.3-3.2,1c-0.8,0.7-1.2,1.5-1.2,2.5
	c0,1.7,1.3,2.8,4,3.4c0.8,0.2,1.4,0.4,1.7,0.6s0.5,0.5,0.5,0.9C52.7,28.2,52.6,28.5,52.3,28.7z M58,17v3h-1v2h1v5.9
	c0,2.1,1.1,3.2,3.2,3.2c0.6,0,1.8-0.1,1.8-0.3v-2.3c0,0-0.5,0.1-0.8,0.1c-0.4,0-0.8-0.1-0.9-0.3S61,27.9,61,27.5V22h2v-2h-2v-3H58z
	 M72.4,30.6c0.8-0.4,1.4-0.8,1.8-1.5l-1.5-1.6c-0.6,0.8-1.5,1.2-2.7,1.2c-0.7,0-1.4-0.4-1.8-0.8c-0.5-0.4-0.8-0.9-0.9-1.9H74v-0.9
	c0-1.8-0.2-3.1-1.1-4.1c-0.9-1-2-1.4-3.5-1.4c-1,0-1.9,0.2-2.7,0.7c-0.8,0.5-1.5,1.2-2,2c-0.4,0.9-0.8,1.9-0.8,3v0.3
	c0,1.7,0.7,3,1.7,4s2.4,1.5,4.1,1.5C70.7,31.1,71.6,30.9,72.4,30.6z M70.7,22.5C71,22.8,71,23.4,71,24v0h-3.7c0.1,0,0.3-1.2,0.7-1.6
	c0.4-0.4,0.7-0.5,1.3-0.5C70,21.9,70.4,22.1,70.7,22.5z"/>
<path id="XMLID_17_" fill="#FF92E6" d="M124,3.4v40.3c0,2.1-1.5,4.2-3.6,4.2H93.7l19-24l-19-24h26.7C122.5,0,124,1.3,124,3.4z"/>
<g id="XMLID_15_">
	<rect id="XMLID_16_" x="21" y="34" fill="#FFFFFF" width="53" height="2"/>
</g>
</svg>