<!-- Generator: Adobe Illustrator 19.0.0, SVG Export Plug-In  -->
<svg version="1.1"
	 xmlns="http://www.w3.org/2000/svg" xmlns:xlink="http://www.w3.org/1999/xlink" xmlns:a="http://ns.adobe.com/AdobeSVGViewerExtensions/3.0/"
	 x="0px" y="0px" width="124px" height="48px" viewBox="0 0 124 48" enable-background="new 0 0 124 48" xml:space="preserve">
<defs>
</defs>
<g id="XMLID_15_">
	<g id="XMLID_29_">
		<g id="XMLID_34_">
			<path id="XMLID_35_" fill="#E849E8" d="M83.7,0H4C1.9,0,0,1.3,0,3.4v40.3C0,45.9,1.9,48,4,48h79.6l19-24L83.7,0z"/>
		</g>
		<g id="XMLID_32_">
			<polygon id="XMLID_33_" fill="#FF92E6" points="103.2,0 83.7,0 102.7,24 83.7,48 103.2,48 122.3,24 			"/>
		</g>
		<g id="XMLID_30_">
			<path id="XMLID_31_" fill="#FFBFF0" d="M124,43.8V3.4c0-2.1-1.5-3.4-3.6-3.4h-17.2l19.1,24l-19.1,24h17.2
				C122.5,48,124,45.9,124,43.8z"/>
		</g>
	</g>
	<g id="XMLID_16_">
		<path id="XMLID_27_" fill="#FFFFFF" d="M32.8,30.9h-3.1l-6-9.9v9.9h-3.1v-15h3.1l6,9.9v-9.9h3.1V30.9z"/>
		<path id="XMLID_24_" fill="#FFFFFF" d="M40.4,31.1c-1.6,0-3-0.5-4-1.5s-1.5-2.3-1.5-4v-0.3c0-1.1,0.2-2.1,0.6-3s1-1.6,1.8-2
			s1.7-0.7,2.7-0.7c1.5,0,2.7,0.5,3.6,1.4c0.9,1,1.3,2.3,1.3,4.1v1.2h-7.1c0.1,0.7,0.4,1.3,0.9,1.8c0.5,0.4,1.1,0.7,1.8,0.7
			c1.1,0,2-0.4,2.7-1.2l1.5,1.6c-0.4,0.6-1.1,1.1-1.8,1.5C42.2,30.9,41.3,31.1,40.4,31.1z M40.1,21.9c-0.6,0-1.1,0.2-1.4,0.6
			c-0.4,0.4-0.6,1-0.7,1.7h4.1V24c0-0.7-0.2-1.2-0.5-1.5C41.2,22.1,40.7,21.9,40.1,21.9z"/>
		<path id="XMLID_22_" fill="#FFFFFF" d="M52.7,27.8c0-0.4-0.2-0.7-0.5-0.9s-0.9-0.4-1.7-0.6c-2.7-0.6-4-1.7-4-3.4
			c0-1,0.4-1.8,1.2-2.5c0.8-0.7,1.9-1,3.2-1c1.4,0,2.5,0.3,3.4,1c0.8,0.7,1.3,1.5,1.3,2.6h-3c0-0.4-0.1-0.8-0.4-1.1
			c-0.3-0.3-0.7-0.4-1.3-0.4c-0.5,0-0.9,0.1-1.2,0.3c-0.3,0.2-0.4,0.5-0.4,0.9c0,0.3,0.2,0.6,0.5,0.8c0.3,0.2,0.8,0.4,1.6,0.5
			c0.7,0.1,1.4,0.3,1.9,0.5c1.6,0.6,2.4,1.6,2.4,3c0,1-0.4,1.8-1.3,2.5c-0.9,0.6-2,0.9-3.4,0.9c-0.9,0-1.8-0.2-2.5-0.5
			c-0.7-0.3-1.3-0.8-1.7-1.4s-0.6-1.2-0.6-1.9H49c0,0.5,0.2,0.9,0.6,1.2c0.4,0.3,0.9,0.4,1.5,0.4c0.6,0,1-0.1,1.3-0.3
			C52.6,28.5,52.7,28.2,52.7,27.8z"/>
		<path id="XMLID_20_" fill="#FFFFFF" d="M61.1,17v2.7H63v2.2h-1.9v5.6c0,0.4,0.1,0.7,0.2,0.9s0.5,0.3,0.9,0.3c0.3,0,0.6,0,0.9-0.1
			v2.3c-0.6,0.2-1.2,0.3-1.8,0.3c-2.1,0-3.2-1.1-3.2-3.2v-6h-1.6v-2.2h1.6V17H61.1z"/>
		<path id="XMLID_17_" fill="#FFFFFF" d="M69.8,31.1c-1.6,0-3-0.5-4-1.5s-1.5-2.3-1.5-4v-0.3c0-1.1,0.2-2.1,0.7-3
			c0.4-0.9,1-1.6,1.8-2c0.8-0.5,1.7-0.7,2.7-0.7c1.5,0,2.7,0.5,3.6,1.4c0.9,1,1.3,2.3,1.3,4.1v1.2h-7.1c0.1,0.7,0.4,1.3,0.9,1.8
			c0.5,0.4,1.1,0.7,1.8,0.7c1.1,0,2-0.4,2.7-1.2l1.5,1.6c-0.4,0.6-1.1,1.1-1.8,1.5C71.6,30.9,70.8,31.1,69.8,31.1z M69.5,21.9
			c-0.6,0-1.1,0.2-1.4,0.6c-0.4,0.4-0.6,1-0.7,1.7h4.1V24c0-0.7-0.2-1.2-0.5-1.5C70.6,22.1,70.1,21.9,69.5,21.9z"/>
	</g>
</g>
</svg>