<!-- Generator: Adobe Illustrator 19.0.0, SVG Export Plug-In  -->
<svg version="1.1"
	 xmlns="http://www.w3.org/2000/svg" xmlns:xlink="http://www.w3.org/1999/xlink" xmlns:a="http://ns.adobe.com/AdobeSVGViewerExtensions/3.0/"
	 x="0px" y="0px" width="124px" height="48px" viewBox="0 0 124 48" enable-background="new 0 0 124 48" xml:space="preserve">
<defs>
</defs>
<g id="XMLID_15_">
	<g id="XMLID_24_">
		<path id="XMLID_41_" fill="#E849E8" d="M55,25.3h-5.9v6.1H46v-15h9.8v2.5h-6.7v3.9H55V25.3z"/>
		<path id="XMLID_38_" fill="#E849E8" d="M56.7,25.7c0-1.1,0.2-2.1,0.6-3c0.4-0.9,1-1.5,1.8-2c0.8-0.5,1.7-0.7,2.8-0.7
			c1.5,0,2.7,0.5,3.7,1.4c1,0.9,1.5,2.2,1.6,3.8l0,0.8c0,1.7-0.5,3.1-1.4,4.1c-1,1-2.2,1.6-3.8,1.6c-1.6,0-2.9-0.5-3.9-1.5
			s-1.4-2.4-1.4-4.2V25.7z M59.6,25.9c0,1.1,0.2,1.9,0.6,2.4c0.4,0.6,1,0.8,1.7,0.8c0.7,0,1.3-0.3,1.7-0.8c0.4-0.6,0.6-1.4,0.6-2.7
			c0-1-0.2-1.8-0.6-2.4c-0.4-0.6-1-0.9-1.7-0.9c-0.7,0-1.3,0.3-1.7,0.9C59.8,23.9,59.6,24.7,59.6,25.9z"/>
		<path id="XMLID_36_" fill="#E849E8" d="M75.3,23C74.9,23,74.6,23,74.3,23c-1.1,0-1.9,0.4-2.2,1.1v7.3h-3V20.2h2.8l0.1,1.3
			c0.6-1,1.4-1.5,2.5-1.5c0.3,0,0.6,0,0.9,0.1L75.3,23z"/>
		<path id="XMLID_34_" fill="#E849E8" d="M83,23C82.6,23,82.3,23,82,23c-1.1,0-1.9,0.4-2.2,1.1v7.3h-3V20.2h2.8l0.1,1.3
			c0.6-1,1.4-1.5,2.5-1.5c0.3,0,0.6,0,0.9,0.1L83,23z"/>
		<path id="XMLID_31_" fill="#E849E8" d="M84.5,17.4c0-0.4,0.1-0.8,0.4-1.1c0.3-0.3,0.7-0.4,1.2-0.4c0.5,0,0.9,0.1,1.2,0.4
			c0.3,0.3,0.5,0.7,0.5,1.1c0,0.5-0.2,0.8-0.5,1.1c-0.3,0.3-0.7,0.4-1.2,0.4s-0.9-0.1-1.2-0.4C84.6,18.2,84.5,17.8,84.5,17.4z
			 M87.6,31.4h-3V20.2h3V31.4z"/>
		<path id="XMLID_28_" fill="#E849E8" d="M89.6,25.7c0-1.7,0.4-3.1,1.2-4.1s1.9-1.6,3.3-1.6c1.2,0,2.2,0.4,2.9,1.3l0.1-1.1h2.7V31
			c0,1-0.2,1.8-0.7,2.5c-0.4,0.7-1.1,1.3-1.9,1.7c-0.8,0.4-1.7,0.6-2.8,0.6c-0.8,0-1.6-0.2-2.4-0.5c-0.8-0.3-1.4-0.7-1.8-1.3
			l1.3-1.8c0.7,0.8,1.6,1.2,2.7,1.2c0.8,0,1.4-0.2,1.8-0.6c0.4-0.4,0.7-1,0.7-1.8v-0.6c-0.7,0.8-1.6,1.2-2.7,1.2
			c-1.3,0-2.4-0.5-3.3-1.6c-0.8-1-1.2-2.4-1.2-4.2V25.7z M92.6,26c0,1,0.2,1.8,0.6,2.4c0.4,0.6,1,0.9,1.7,0.9c0.9,0,1.6-0.3,1.9-1
			v-4.7c-0.4-0.7-1-1-1.9-1c-0.7,0-1.3,0.3-1.7,0.9S92.6,24.8,92.6,26z"/>
		<path id="XMLID_25_" fill="#E849E8" d="M107.3,31.6c-1.6,0-3-0.5-4-1.5s-1.5-2.3-1.5-4v-0.3c0-1.1,0.2-2.1,0.7-3
			c0.4-0.9,1-1.6,1.8-2c0.8-0.5,1.7-0.7,2.7-0.7c1.5,0,2.7,0.5,3.6,1.4c0.9,1,1.3,2.3,1.3,4.1v1.2h-7.1c0.1,0.7,0.4,1.3,0.9,1.8
			c0.5,0.4,1.1,0.7,1.8,0.7c1.1,0,2-0.4,2.7-1.2l1.5,1.6c-0.4,0.6-1.1,1.1-1.8,1.5C109,31.4,108.2,31.6,107.3,31.6z M106.9,22.4
			c-0.6,0-1.1,0.2-1.4,0.6c-0.4,0.4-0.6,1-0.7,1.7h4.1v-0.2c0-0.7-0.2-1.2-0.5-1.5C108.1,22.6,107.6,22.4,106.9,22.4z"/>
	</g>
	<g id="XMLID_16_">
		<g id="XMLID_19_">
			<g id="XMLID_20_">
				<path id="XMLID_21_" fill="#E849E8" d="M120.1,3c0.5,0,0.9,0.5,0.9,0.9v40.3c0,0.5-0.5,0.7-0.9,0.7H3.8C3.3,45,3,44.7,3,44.3
					V3.9C3,3.5,3.3,3,3.8,3H120.1 M120.1,0H3.8C1.6,0,0,1.8,0,3.9v40.3C0,46.4,1.6,48,3.8,48h116.3c2.1,0,3.9-1.6,3.9-3.7V3.9
					C124,1.8,122.2,0,120.1,0L120.1,0z"/>
			</g>
		</g>
		<g id="XMLID_17_">
			<polygon id="XMLID_18_" fill="#E849E8" points="29.5,42 17.3,24.6 29.5,7.2 31.9,8.9 21,24.6 31.9,40.3 			"/>
		</g>
	</g>
</g>
</svg>